<svg width="21" height="18" viewBox="0 0 21 18" fill="none" xmlns="http://www.w3.org/2000/svg">
<path d="M19.7552 7.16687C19.8299 7.18859 19.9093 7.18859 19.984 7.16687L20.7422 6.96709L19.6343 6.09005C19.2557 5.79038 18.3356 5.8673 18.2148 5.72046C18.0935 5.78689 17.9594 5.82653 17.8216 5.8367C17.6837 5.84687 17.5452 5.82733 17.4156 5.7794C17.4805 5.84632 17.4795 6.15798 17.2318 6.07907C17.4166 5.46274 16.8072 5.73844 16.6683 5.25497C16.8072 5.58261 15.9361 5.22401 16.1618 5.69349C15.962 5.61158 16.1838 5.45575 16.0449 5.28394C15.5065 5.45475 14.959 4.96429 14.3247 4.9563C14.3117 5.00625 14.3337 5.07917 14.3247 5.15608C14.3187 5.15608 14.3127 5.15608 14.3057 5.14709C14.1184 4.44805 13.7978 3.79174 13.3616 3.21422C12.9165 2.54555 12.5734 1.81433 12.3437 1.04461C12.4106 1.36226 12.3317 1.26936 12.2507 1.15349C12.2927 1.27036 12.1988 1.35327 12.1808 1.47713C12.1089 1.21076 12.0276 0.946713 11.9371 0.685001C11.8372 0.907756 11.5994 0.193542 11.5534 0.444266L11.6474 0.544156C11.5923 0.783769 11.5923 1.03274 11.6474 1.27236L11.4216 0.813859L8.9101 5.90226L7.21879 6.14799C7.23026 6.14676 7.2409 6.14144 7.24876 6.13301L7.22579 6.03312C7.1189 6.05509 7.05696 6.13301 7.12589 6.16597L6.82619 6.20992C6.98303 6.02513 6.77124 5.45575 6.55246 5.14609C6.55846 5.228 6.56945 5.30292 6.37864 5.44576C6.46555 5.53666 6.87014 5.61757 6.72129 5.81136C6.46255 5.94721 6.48753 5.7784 6.34068 5.69848C6.47055 5.88927 6.14088 6.0471 6.14088 6.31281L4.48054 6.55454C4.48443 6.53969 4.48446 6.52409 4.48061 6.50923C4.47676 6.49436 4.46917 6.48073 4.45856 6.46964L4.31071 6.52757C4.13988 6.34477 4.55846 6.20393 4.35067 6.137C4.53649 5.96319 4.73429 5.70448 5.04098 5.7774L5.14088 6.05809C5.12769 6.03374 5.10905 6.01278 5.08641 5.99682C5.06378 5.98086 5.03777 5.97034 5.01041 5.96609C4.98305 5.96184 4.95507 5.96396 4.92866 5.97229C4.90225 5.98063 4.87813 5.99495 4.85816 6.01414C4.95806 5.8683 5.35766 6.33978 5.43758 5.94321L5.20482 5.7734C5.39063 5.5976 5.60441 5.25497 5.87314 5.30891C5.7143 5.04121 5.8182 5.34987 5.58743 5.04321C5.80621 5.43477 4.92709 5.12212 5.24478 5.51968C5.00102 5.16008 4.89612 5.40281 4.60342 5.10913C4.6244 5.20303 4.7163 5.27795 4.49353 5.26296C4.48575 5.29462 4.474 5.32516 4.45856 5.35386H4.44258L4.45657 5.36385C4.44857 5.37984 4.44857 5.38183 4.45657 5.36385C4.51135 5.39376 4.55668 5.4384 4.58743 5.49271C4.51151 5.72645 4.16686 5.76941 4.06796 5.90026C3.93309 5.87329 4.10592 5.78339 4.021 5.69149L3.87215 5.88628C3.8242 5.67851 3.48054 5.58661 3.76426 5.41679L3.49153 5.44676C3.37281 5.38047 3.23506 5.35652 3.10092 5.37884L0.313721 5.99416L2.34368 7.70827C2.3821 7.74205 2.42853 7.76544 2.47855 7.7762C2.53949 7.90006 2.87815 7.83513 2.67835 7.87609L3.07795 8.08186L3.04298 8.12282C3.3287 8.43847 3.91611 8.48042 3.99503 9.09475C4.16943 9.15104 4.31837 9.26706 4.41561 9.42239L4.31571 9.5872C4.49153 9.66912 4.58144 10.1046 4.77225 10.0217C4.57245 10.5162 5.33468 10.721 5.50451 11.0096L5.68134 10.8458C5.79271 10.9579 5.92289 11.0495 6.06595 11.1165C5.91111 11.4801 6.35866 11.9646 6.015 12.2493C6.0405 12.2876 6.05017 12.3342 6.04197 12.3795C6.03377 12.4248 6.00835 12.4651 5.97105 12.492C5.97156 12.4825 5.96912 12.4731 5.96405 12.465C5.95935 12.4783 5.956 12.492 5.95406 12.506C5.91111 12.544 5.86116 12.5819 5.8182 12.6259C5.86792 12.6005 5.91288 12.5667 5.95107 12.526C5.94212 12.6348 5.95227 12.7443 5.98104 12.8496L5.74727 12.8596V12.8876C5.64737 12.9875 5.83818 12.9965 6.019 12.9655C6.04509 13.0297 6.08229 13.0889 6.12889 13.1403C5.74927 13.1703 6.19982 13.4629 5.79023 13.5219C5.96605 13.6318 5.83318 14.1212 6.22179 14.2531C6.16885 14.2531 6.13788 14.278 6.14587 14.2151C6.07794 14.336 6.01101 14.4558 6.10391 14.5897H5.80421L6.14188 14.9353C5.94208 15.0752 5.82419 15.1281 5.63339 14.9213C5.90311 15.3868 5.70431 15.2739 5.98204 15.6775L5.79922 15.6286C5.78523 15.7534 5.99902 15.9942 5.83318 16.0421C5.78275 16.0709 5.73993 16.1113 5.70831 16.16L5.15686 16.9591L6.70831 16.8822C7.15686 16.8602 7.88912 16.2469 8.58542 16.2099C8.20381 15.7844 8.99701 16.2738 8.82319 15.8803C8.92309 15.9802 9.04496 15.9962 8.99401 16.151C9.25975 15.8663 9.57943 16.0781 9.63637 15.6395C9.73627 15.7394 9.65635 15.8453 9.72528 15.8973C9.73827 15.8583 9.77523 15.7414 9.84616 15.7974C9.91709 15.8533 9.84616 15.9202 9.82418 15.9972C10.1469 15.8024 9.99201 15.4278 9.84017 15.0792C10.0929 15.1491 10.1648 15.0792 10.1708 14.7985C10.2877 14.8774 10.4456 14.9403 10.2587 15.0892C10.3836 15.0442 11.0579 14.8764 10.9241 14.6017C10.996 14.6506 11.0969 14.5358 11.1109 14.4888C11.2543 14.4329 11.3947 14.3696 11.5315 14.299C11.8142 14.6486 11.7602 14.2581 12.0669 14.7395L12.1479 14.5238C12.4196 14.1132 12.4276 14.9973 12.7852 14.9743L12.7482 14.8075C12.974 14.7375 12.8481 15.6156 12.972 15.7474C12.985 15.8024 12.8891 15.7814 12.8292 15.7854C13.0839 16.2459 13.018 15.5476 13.3407 15.6395C13.3197 15.8104 13.0809 15.9662 13.2627 16.095C13.2997 16.2609 14.0729 15.9292 14.1958 16.3438C14.1958 16.2029 14.1958 16.0621 14.3726 16.0511C14.5994 16.121 14.7133 16.7593 15.0819 16.5116C15.0918 16.5467 15.089 16.5842 15.0739 16.6175C15.2787 16.6105 15.6653 16.7383 15.8591 16.6005C15.7862 16.8562 15.8881 16.9621 16.0449 17.013L17.7642 17.5674L17.2527 16.136C17.1408 15.8223 16.7113 15.4667 17.1908 15.3868L17.0599 14.8524H17.1358C17.1382 14.7311 17.1002 14.6125 17.0279 14.515C16.9556 14.4176 16.853 14.3469 16.7362 14.314C16.7712 14.2251 16.8481 14.273 16.8871 14.273C16.945 13.7436 16.9061 13.6977 16.4765 13.3351L16.7013 13.2512C16.5464 13.1593 16.94 12.458 16.5844 12.0095C16.6256 12.0075 16.6661 12.0207 16.6983 12.0465C16.3626 11.581 16.98 10.7659 16.4276 10.5801C16.5534 10.4862 16.6733 10.3803 16.7722 10.4902C17.4375 9.81096 18.2707 9.34148 18.9241 8.73414L18.6084 8.55734L18.8441 8.35756C18.959 8.35756 19.1129 8.47543 18.944 8.62027C19.1648 8.6802 19.0949 8.24268 19.0439 8.18375C19.4525 7.98397 19.2058 8.5923 19.3067 8.5054L19.4176 8.36056H19.3596C19.3656 8.16078 19.2697 8.03991 19.4715 7.8611C19.6413 7.79318 19.6833 7.955 19.7402 7.91804C19.7572 7.93602 19.7812 7.92903 19.8202 7.85411L20.1199 7.60239L19.8202 7.51449C19.8581 7.29273 20.1019 7.26376 19.7552 7.16687ZM6.5115 11.587L6.67834 11.5391L6.55346 11.2114C6.7123 11.3193 6.94207 11.5031 7.17584 11.7029L7.09192 12.1943C6.84713 12.048 6.64655 11.8382 6.5115 11.587ZM6.38263 9.88887C6.39348 9.85259 6.41111 9.8187 6.43458 9.78898L6.67234 10.0217L6.42459 10.2854L6.70531 10.0547L6.93908 10.2814C6.80784 10.4241 6.66145 10.5521 6.50251 10.663L6.45956 10.5292L6.43059 10.5831C6.38184 10.3541 6.36569 10.1194 6.38263 9.88588V9.88887ZM14.3207 5.17306C14.3156 5.19706 14.3058 5.21982 14.2919 5.24005C14.2781 5.26027 14.2603 5.27756 14.2398 5.29093L14.0609 4.98427L14.3207 5.17306ZM6.79122 6.20892L6.44157 6.25987C6.46078 6.23325 6.48508 6.21071 6.51307 6.19356C6.54106 6.17642 6.57218 6.165 6.60462 6.15999C6.63706 6.15497 6.67017 6.15644 6.70203 6.16433C6.7339 6.17222 6.76387 6.18636 6.79023 6.20593L6.79122 6.20892ZM6.36965 6.25687V6.27085H6.34567L6.36965 6.25687ZM3.29273 5.5976L3.28674 5.60958C3.1229 5.54066 3.18084 5.56863 3.29173 5.5956L3.29273 5.5976ZM3.68034 7.92903C3.36866 7.76321 3.75627 7.64035 3.67435 7.64035C3.31171 7.19983 2.89913 7.64035 2.68834 7.33468L1.61841 5.7734L3.16586 5.8643C3.21966 5.86896 3.27249 5.88141 3.3227 5.90126C3.56746 6.12402 3.40462 6.40071 3.47755 6.57852C3.41652 6.61172 3.34686 6.62566 3.27775 6.61847L3.10692 6.60049L3.2228 6.78829C3.30772 6.92513 3.29773 7.09894 3.39863 7.18785L3.31771 6.94012C3.44058 6.94012 3.61741 7.02303 3.63739 7.14589C3.63925 7.10619 3.631 7.06666 3.61341 7.03102L4.54348 7.93702C4.26294 8.03365 3.95758 8.03012 3.67934 7.92703L3.68034 7.92903ZM5.44058 9.10474C5.4934 9.05518 5.53203 8.99242 5.55247 8.92294L5.75227 9.11473C5.64791 9.13585 5.54002 9.13174 5.43758 9.10274L5.44058 9.10474ZM6.60541 15.0352L6.56645 15.265L6.18883 14.9653C6.32429 15.0038 6.46374 15.0266 6.60441 15.0332L6.60541 15.0352ZM9.83317 14.8794C9.77024 14.8564 9.75525 14.7465 9.75026 14.6057C9.73937 14.6384 9.73037 14.6718 9.72328 14.7056C9.69397 14.6986 9.66662 14.6851 9.64326 14.6661C9.61991 14.6471 9.60116 14.623 9.58842 14.5957L9.74726 14.5118V14.6117L9.78722 14.4928L9.85915 14.4548C9.93241 14.497 10.0081 14.5347 10.0859 14.5677L9.83317 14.8794ZM17.0379 15.1341C16.994 15.1685 16.9573 15.2113 16.9301 15.26L16.9161 15.222L17.0379 15.1341ZM16.0389 11.2554L16.022 11.2244L16.1418 10.8129C15.7502 11.1025 15.9341 10.4962 15.6923 10.5332C15.7922 10.3644 16.2248 10.3763 16.0919 10.5701L16.035 10.5651C16.0519 10.6019 16.0795 10.6327 16.1143 10.6534C16.1491 10.6741 16.1894 10.6837 16.2298 10.681L16.0389 11.2554ZM19.6283 7.83014C19.6813 7.6853 19.6953 7.75622 19.7143 7.83014H19.6283Z" fill="#FBED81"/>
</svg>
